# xmcd
#
# Track frame offsets:
#	150
#	10028
#	21528
#	33834
#	48110
#	60335
#	71843
#	86139
#	103162
#	118369
#
# Disc length: 1732 seconds
#
# Revision: 0
# Processed by: cddbd v1.5.2PL0 Copyright (c) Steve Scherf et al.
# Submitted via: audiograbber 1.83.01
#
DISCID=8306c20a
DTITLE=The Murray Hillbillies - Keep Off The Grass
DYEAR=2003
DGENRE=Country
TTITLE0=No Lovin' Tonight
TTITLE1=Baby We're Really In Love
TTITLE2=Mind Your Own Business
TTITLE3=Flat Lonesome
TTITLE4=Lights On The Hill
TTITLE5=I'll Never Get Out Of This World Alive
TTITLE6=Cash On The Barrelhead
TTITLE7=California Blues
TTITLE8=Keep Off The Grass
TTITLE9=Even Though
EXTD=
EXTT0=
EXTT1=
EXTT2=
EXTT3=
EXTT4=
EXTT5=
EXTT6=
EXTT7=
EXTT8=
EXTT9=
PLAYORDER=
